<svg width="1200" height="1200" xmlns="http://www.w3.org/2000/svg" xmlns:xlink="http://www.w3.org/1999/xlink" version="1.1"><g transform="scale(8.4375) translate(7.11100620693631, 7.111111111111111)">                        <g fill="#ffffff"><path xmlns="http://www.w3.org/2000/svg" d="M46.8524933,124.4237976C51.9013939,126.8041992,57.950695,128,64.0043945,128  c6.0386047,0,12.0806046-1.1884995,17.1445007-3.5766983c20.1826019-9.5169983,26.2564011-31.7557983,18.7509995-51.652298  C90.7050934,48.3988991,65.0341949,29.6513996,65.8500977,2.03125c0,0-0.0679016-2.03125-1.8599014-2.03125  c-1.8774033,0-1.8305016,2.04053-1.8388023,2.04053c0,0-0.0009995-0.0029299-0.0014992-0.00928  c0.8163986,27.6201496-24.8549995,46.3676491-34.0493011,70.7397537  C20.594696,92.6675034,26.6684952,114.9063034,46.8524933,124.4237976z M48,114c-1.1045036,0-2-0.8955002-2-2s0.8954964-2,2-2  c1.104496,0,2,0.8955002,2,2S49.104496,114,48,114z M49.5565948,56.6156998  c0.7641983-0.7963982,2.028801-0.8237,2.8261986-0.0595016c0.7974014,0.7636032,0.8247032,2.0292015,0.0615005,2.8271027  c-0.9940987,1.0396004-24.1556988,25.6797028-7.4575005,45.3212967c0.7153015,0.8418045,0.6133003,2.1035004-0.2284966,2.8193054  C44.3822937,107.8438034,43.9218941,108,43.4638939,108c-0.5663986,0-1.1288948-0.2393036-1.5248947-0.7045975  C22.8998966,84.8999023,49.2875938,56.8959999,49.5565948,56.6156998z"/></g>        </g></svg>